HIERARCHY
ROOT Hips
{
	OFFSET 0.00000 0.00000 0.00000
	CHANNELS 6 Xposition Yposition Zposition Yrotation Zrotation Xrotation 
	JOINT Lumbar
	{
		OFFSET 0 0 0
		CHANNELS 3 Zrotation Xrotation Yrotation
		JOINT Neck
		{
			OFFSET 0.00 0.2701 0.00
			CHANNELS 3 Zrotation Xrotation Yrotation
			End Site
			{
				OFFSET 0.00 0.1379 0.00
			}
		}
		JOINT RightShoulder
		{
			OFFSET 0.0119 0.2289 0.1181
			CHANNELS 3 Zrotation Xrotation Yrotation
			JOINT RightElbow
			{
				OFFSET 0.00 -0.1475 0.00
				CHANNELS 2 Zrotation Yrotation
				JOINT RightWrist
				{
					OFFSET 0.00 -0.1605 0.00
					CHANNELS 2 Zrotation Xrotation
					End Site
					{
						OFFSET 0.0040 -0.1068 0.0006
					}
				}
			}
		}
		JOINT LeftShoulder
		{
			OFFSET 0.0119 0.2289 -0.1181
			CHANNELS 3 Zrotation Xrotation Yrotation
			JOINT LeftElbow
			{
				OFFSET 0.00 -0.1475 0.00
				CHANNELS 2 Zrotation Yrotation
				JOINT LeftWrist
				{
					OFFSET 0.00 -0.1605 0.00
					CHANNELS 2 Zrotation Xrotation
					End Site
					{
						OFFSET 0.0040 -0.1068 -0.0006
					}
				}
			}
		}
	}
	JOINT RightHip
	{
		OFFSET 0.0316 -0.0424 0.0458
		CHANNELS 3 Zrotation Xrotation Yrotation
		JOINT RightKnee
		{
			OFFSET 0.00 -0.2438 0.00
			CHANNELS 1 Zrotation
			JOINT RightAnkle
			{
				OFFSET 0.00 -0.2449 0.00
				CHANNELS 3 Zrotation Xrotation Yrotation
				End Site
				{
					OFFSET 0.1237 -0.0542 0.0051
				}
			}
		}
	}
	JOINT LeftHip
	{
		OFFSET 0.0316 -0.0424 -0.0458
		CHANNELS 3 Zrotation Xrotation Yrotation
		JOINT LeftKnee
		{
			OFFSET 0.00 -0.2438 0.00
			CHANNELS 1 Zrotation
			JOINT LeftAnkle
			{
				OFFSET 0.00 -0.2449 0.00
				CHANNELS 3 Zrotation Xrotation Yrotation
				End Site
				{
					OFFSET 0.1237 -0.0542 -0.0051
				}
			}
		}
	}
}
MOTION
Frames: 11
Frame Time: 0.02
0.48138 0.38367 0.20302 179.74558 0 4.3914 10.28482 -4.5111 -4.22529 -19.64361 10.79738 1.83275 54.87363 -15.7061 54.50966 33.89536 73.80559 47.00324 -4.23366 55.86707 -2.9637 -63.29146 21.25151 -73.74319 20.75691 5.04413 130.40519 -34.09098 -27.31578 -141.22659 -19.26709 -3.47493 15.40051 130.40519 34.09098 31.8543 -140.47197 -16.84393 4.86124 -3.18578
0.48114 0.38398 0.20294 179.64266 0 4.65079 10.82741 -4.89 -4.14906 -20.77667 11.91983 2.69352 56.01288 -16.6781 54.85978 33.45673 73.21243 46.96207 -3.65102 56.45806 -4.37062 -62.02473 20.56362 -74.14301 19.49088 5.02854 130.40519 -34.09098 -27.40798 -141.06219 -20.13321 -5.28838 14.91695 130.40519 34.09098 31.82672 -140.48637 -17.46586 5.40632 -2.68927
0.48079 0.38439 0.20279 179.50195 0 5.00546 11.3543 -5.3534 -4.10733 -21.79587 13.00717 3.65615 56.95041 -17.70375 55.27737 33.1163 72.40968 46.87316 -2.95135 56.83156 -5.7573 -60.45583 19.95697 -74.64772 18.4664 4.97679 130.40519 -34.09098 -27.54551 -140.93575 -20.88618 -7.4029 14.40195 130.40519 34.09098 31.77715 -140.55359 -18.00829 6.06866 -2.2289
0.4805 0.38474 0.20268 179.38214 0 5.30833 11.87704 -5.76683 -4.06013 -22.82797 14.09078 4.5537 57.93934 -18.68856 55.64449 32.74979 71.76784 46.82077 -2.34262 57.27992 -7.12447 -59.06727 19.32764 -75.10201 17.34794 4.94937 130.40519 -34.09098 -27.65851 -140.79519 -21.6677 -9.31725 13.91506 130.40519 34.09098 31.73781 -140.59437 -18.56754 6.65677 -1.76852
0.48017 0.38514 0.20255 179.24417 0 5.64547 12.44828 -6.22853 -3.96933 -24.03139 15.26856 5.53657 59.10674 -19.74789 56.08801 32.29936 70.87135 46.70911 -1.57466 57.83511 -8.62601 -57.49549 18.62869 -75.56803 16.13694 4.89189 130.40519 -34.09099 -27.7891 -140.63933 -22.55537 -11.50392 13.36648 130.40519 34.09099 31.69409 -140.6445 -19.20714 7.33127 -1.23822
0.47991 0.38546 0.20243 179.13559 0 5.93458 12.91419 -6.60995 -3.97713 -24.84835 16.2372 6.36337 59.85197 -20.66194 56.39265 32.04764 70.44119 46.70695 -1.10762 58.11408 -9.83766 -56.23376 18.09736 -76.03064 15.18612 4.88602 130.40519 -34.09099 -27.89359 -140.52512 -23.19248 -13.19451 12.94034 130.40519 34.09099 31.65522 -140.68815 -19.66153 7.855 -0.86187
0.47991 0.38556 0.20236 179.12258 0 6.0665 13.09595 -6.7493 -4.25621 -24.62261 16.64117 6.73673 59.47151 -21.17174 56.27872 32.34023 71.42044 47.03549 -1.53597 57.68228 -10.2546 -55.90785 18.01359 -76.50703 14.89373 5.04624 130.40519 -34.09099 -27.91291 -140.51705 -23.15089 -13.42234 12.8587 130.40519 34.09099 31.63948 -140.69961 -19.61663 7.92677 -0.90833
0.47999 0.38558 0.2023 179.14006 0 6.14716 13.17159 -6.80492 -4.63213 -24.01144 16.83326 6.94796 58.67356 -21.5306 56.02661 32.82676 72.86115 47.47243 -2.26511 56.97958 -10.37808 -55.90375 18.09639 -76.96889 14.85884 5.25689 130.40519 -34.09098 -27.90458 -140.54983 -22.8618 -13.14298 12.90215 130.40519 34.09098 31.62921 -140.70306 -19.38954 7.8442 -1.10744
0.48003 0.38564 0.20223 179.14041 0 6.25243 13.29392 -6.8988 -4.95893 -23.57782 17.11845 7.23132 58.07149 -21.95197 55.8512 33.21281 74.04164 47.84868 -2.83327 56.40074 -10.63401 -55.74871 18.10117 -77.40466 14.71011 5.43416 130.40519 -34.09098 -27.91014 -140.56388 -22.69446 -13.10782 12.88957 130.40519 34.09098 31.61398 -140.71119 -19.25075 7.83715 -1.23259
0.48007 0.38569 0.20217 179.15259 0 6.35581 13.4224 -6.99489 -5.30832 -23.13017 17.41736 7.52598 57.43659 -22.40277 55.62081 33.65453 75.42687 48.2719 -3.49912 55.81064 -10.89499 -55.60241 18.11783 -77.97778 14.5552 5.65325 130.40519 -34.09098 -27.91191 -140.57979 -22.48582 -13.02633 12.87208 130.40519 34.09098 31.60788 -140.71684 -19.08591 7.81175 -1.37836
0.48013 0.38574 0.2021 179.14865 0 6.44925 13.51285 -7.06519 -5.63344 -22.62184 17.63617 7.75592 56.77355 -22.75346 55.46943 34.02478 76.49976 48.62322 -4.03531 55.18324 -11.07392 -55.51888 18.14897 -78.26535 14.47213 5.79908 130.40519 -34.09098 -27.91415 -140.6012 -22.30384 -12.91581 12.89528 130.40519 34.09098 31.58498 -140.72495 -18.93311 7.78602 -1.51693
